<svg xmlns="http://www.w3.org/2000/svg">
<symbol id="search" viewBox="0 0 24 24" fill="none">
  <path d="M11 19C15.4183 19 19 15.4183 19 11C19 6.58172 15.4183 3 11 3C6.58172 3 3 6.58172 3 11C3 15.4183 6.58172 19 11 19Z" stroke="" stroke-width="2" stroke-linecap="round" stroke-linejoin="round" />
  <path d="M20.9999 20.9999L16.6499 16.6499" stroke="" stroke-width="2" stroke-linecap="round" stroke-linejoin="round" />
</symbol>
<symbol id="cart" viewBox="0 0 24 24" fill="none">
  <path d="M9 22C9.55228 22 10 21.5523 10 21C10 20.4477 9.55228 20 9 20C8.44772 20 8 20.4477 8 21C8 21.5523 8.44772 22 9 22Z" stroke="" stroke-width="2" stroke-linecap="round" stroke-linejoin="round" />
  <path d="M20 22C20.5523 22 21 21.5523 21 21C21 20.4477 20.5523 20 20 20C19.4477 20 19 20.4477 19 21C19 21.5523 19.4477 22 20 22Z" stroke="" stroke-width="2" stroke-linecap="round" stroke-linejoin="round" />
  <path d="M1 1H5L7.68 14.39C7.77144 14.8504 8.02191 15.264 8.38755 15.5583C8.75318 15.8526 9.2107 16.009 9.68 16H19.4C19.8693 16.009 20.3268 15.8526 20.6925 15.5583C21.0581 15.264 21.3086 14.8504 21.4 14.39L23 6H6" stroke="" stroke-width="2" stroke-linecap="round" stroke-linejoin="round" />
</symbol>
<symbol id="menu-burger" viewBox="0 0 24 24" fill="none">
    <path d="M21 12H9M21 18H7M21 6H3" stroke="#000" stroke-width="2" stroke-linecap="round"
      stroke-linejoin="round" />
</symbol>
<symbol id="menu-cross" viewBox="0 0 24 24" fill="none">
    <path d="M18 6L6 18M6 6L18 18" stroke="#000" stroke-width="2" stroke-linecap="round" stroke-linejoin="round" />
</symbol>
<symbol id="arrow" viewBox="0 0 14 26" fill="none">
  <path d="M13 25L1 13L13 1" stroke="" stroke-width="2" stroke-linecap="round" stroke-linejoin="round" />
</symbol>
<symbol id="searching" viewBox="0 0 30 29" fill="none">
  <path d="M13.75 22.9583C19.2729 22.9583 23.75 18.6304 23.75 13.2917C23.75 7.95291 19.2729 3.625 13.75 3.625C8.22715 3.625 3.75 7.95291 3.75 13.2917C3.75 18.6304 8.22715 22.9583 13.75 22.9583Z" stroke="black" stroke-width="2" stroke-linecap="round" stroke-linejoin="round" />
  <path d="M26.2499 25.3749L20.8124 20.1187" stroke="black" stroke-width="2" stroke-linecap="round" stroke-linejoin="round" />
</symbol>
<symbol id="arrow-upright2" viewBox="0 0 21 18" fill="none">
  <g clip-path="url(#clip0_1_354)">
    <path d="M1.61539 16.6155L19.3846 1.38477" stroke="#08090D" stroke-width="2" stroke-linecap="round" stroke-linejoin="round" />
    <path d="M1.61539 1.38477H19.3846V16.6155" stroke="#08090D" stroke-width="2" stroke-linecap="round" stroke-linejoin="round" />
  </g>
  <defs>
    <clipPath id="clip0_1_354">
      <rect width="21" height="18" fill="white" />
    </clipPath>
  </defs>
</symbol>
<symbol id="arrow-down" viewBox="0 0 12 8" fill="none">
  <g clip-path="url(#clip0_1_12)">
    <path d="M11 1L6 6L1 1" stroke="" stroke-width="1.5" />
  </g>
  <defs>
    <clipPath id="clip0_1_12">
      <rect width="12" height="8" fill="" />
    </clipPath>
  </defs>
</symbol>
</svg>